<svg height="512" viewBox="0 0 128 128" width="512" xmlns="http://www.w3.org/2000/svg" xmlns:xlink="http://www.w3.org/1999/xlink"><linearGradient id="a" gradientUnits="userSpaceOnUse" x1="117.843" x2="10.043" y1="106.2" y2="-1.6"><stop offset="0" stop-color="#ec5569"/><stop offset="1" stop-color="#ffcb00"/></linearGradient><path d="m99.781 92.34a1.75 1.75 0 0 1 0 3.5h-3.562a1.75 1.75 0 0 1 0-3.5zm16.461-13.98h-85.787a6.99 6.99 0 0 0 0 13.98h56.482a1.75 1.75 0 0 1 0 3.5h-56.482a10.49 10.49 0 0 1 0-20.98h13.671l-20.246-63.942h-20.38v6.5h14.339a1.749 1.749 0 0 1 1.668 1.222l15.02 47.442a1.748 1.748 0 0 1 -1.668 2.278h-2.4a16.99 16.99 0 0 0 0 33.98h84.037v-6.5h-5.43a1.75 1.75 0 1 1 0-3.5h7.18a1.749 1.749 0 0 1 1.75 1.75v10a1.749 1.749 0 0 1 -1.75 1.75h-6.746a11.249 11.249 0 1 1 -21.376 0h-31.691a11.25 11.25 0 1 1 -21.376 0h-4.6a20.49 20.49 0 0 1 0-40.98h.015l-13.914-43.942h-14.808a1.749 1.749 0 0 1 -1.75-1.75v-10a1.749 1.749 0 0 1 1.75-1.75h23.411a1.748 1.748 0 0 1 1.668 1.222l3.544 11.192h95.877a1.75 1.75 0 0 1 1.722 2.064l-10.008 55.028a1.75 1.75 0 0 1 -1.722 1.436zm-24.351 27.48a7.751 7.751 0 1 0 13.835 0zm-53.064 0a7.75 7.75 0 1 0 13.836 0zm85.326-82.508h-10.553l-4.57 20.014h11.483zm-37.73 20.014h10.811l4.571-20.014h-15.382zm-54.942-20.014 6.337 20.014h14.5l-4.573-20.014zm28.032 51.528-4.571-20.014h-13.482l6.34 20.014zm15.41-20.014h-8.185l4.571 20.014h3.614zm15.114 20.014 4.571-20.014h-8.185v20.014zm8.206 0 5.06-22.154a1.748 1.748 0 0 1 1.706-1.36h14.05l.818-4.5h-13.041a1.751 1.751 0 0 1 -1.706-2.14l4.882-21.374h-4.612l-5.059 22.153a1.751 1.751 0 0 1 -1.706 1.361h-13.962a1.749 1.749 0 0 1 -1.75-1.75v-21.764h-4.5v21.768a1.749 1.749 0 0 1 -1.75 1.75h-13.956a1.75 1.75 0 0 1 0-3.5h12.206v-20.018h-15.382l1.986 8.7a1.75 1.75 0 1 1 -3.412.779l-2.164-9.478h-4.616l4.882 21.374a1.751 1.751 0 0 1 -1.706 2.14h-15.584l1.425 4.5h15.986a1.75 1.75 0 0 1 1.706 1.36l5.056 22.153h4.62l-4.882-21.375a1.75 1.75 0 0 1 1.706-2.139h12.129a1.749 1.749 0 0 1 1.75 1.75v21.764h4.5v-21.76a1.749 1.749 0 0 1 1.75-1.75h12.127a1.75 1.75 0 0 1 1.706 2.139l-4.879 21.371zm16.539 0 3.64-20.014h-12.022l-4.567 20.014z" fill="url(#a)"/></svg>