<svg id="Capa_1" enable-background="new 0 0 512 512" height="512" viewBox="0 0 512 512" width="512" xmlns="http://www.w3.org/2000/svg"><g><g><path d="m359.955 138.938-19.45-63.147c-1.252-4.063-4.066-7.463-7.825-9.452l-79.158-41.877c-3.914-2.071-8.764-.576-10.834 3.337l-94.441 178.049 197.482-30.011 13.076-24.682c1.987-3.759 2.401-8.153 1.15-12.217z" fill="#eceaec"/><path d="m219.466 175.837c-5.675 0-10.811-2.904-13.739-7.77-2.928-4.861-3.084-10.76-.423-15.774l63.514-119.739-15.295-8.092c-3.914-2.071-8.765-.576-10.834 3.337l-94.442 178.049 180.2 2.612 17.282-32.623z" fill="#dbd8db"/><path d="m23.532 231.95v248.5c0 4.427 3.589 8.016 8.016 8.016h448.903c4.427 0 8.016-3.589 8.016-8.016v-248.5z" fill="#ff7e92"/><path d="m71.629 272.031h416.839v-40.081h-464.936v248.5c0 4.427 3.589 8.016 8.016 8.016h16.032v-192.387c.001-13.281 10.767-24.048 24.049-24.048z" fill="#ff5f7a"/><path d="m496.484 199.886h-480.968c-4.427 0-8.016 3.589-8.016 8.016v32.064h497v-32.064c0-4.428-3.589-8.016-8.016-8.016z" fill="#c9c5c9"/><path d="m39.565 223.934c-4.427 0-8.016-3.589-8.016-8.016v-16.032h-16.033c-4.427 0-8.016 3.589-8.016 8.016v32.065c0 4.427 3.589 8.016 8.016 8.016h480.968c4.427 0 8.016-3.589 8.016-8.016v-16.032h-464.935z" fill="#b8b2b8"/><path d="m359.955 138.938-19.45-63.147c-.571-1.855-1.504-3.547-2.668-5.054l-21.778 41.222c-2.07 3.914-.576 8.764 3.337 10.834l41.197 21.837c.115-1.905-.065-3.832-.638-5.692z" fill="#dbd8db"/></g><g><path d="m496.484 192.386h-332.383l85.216-161.079c.133-.252.447-.347.698-.215l78.398 41.475-18.984 35.885c-1.938 3.663-2.333 7.862-1.114 11.823 1.22 3.961 3.91 7.21 7.573 9.147l35.885 18.984-8.415 15.907c-1.937 3.662-.539 8.2 3.122 10.137 3.662 1.938 8.2.539 10.137-3.122l8.817-16.667c2.939-5.557 3.539-11.925 1.688-17.932l-19.45-63.146c-1.85-6.007-5.929-10.934-11.485-13.874l-79.158-41.877c-7.562-4.002-16.97-1.104-20.971 6.459l-88.927 168.093h-131.615c-8.556.002-15.516 6.962-15.516 15.518v32.064c0 8.556 6.96 15.516 15.516 15.516h.516v224.968c0 8.556 6.96 15.516 15.516 15.516h448.903c8.556 0 15.516-6.96 15.516-15.516v-224.968h.516c8.556 0 15.516-6.96 15.516-15.516v-32.064c.001-8.556-6.959-15.516-15.515-15.516zm-147.072-62.198-26.509-14.024c-.047-.024-.188-.1-.251-.304s.012-.346.037-.393l14.024-26.509zm147.588 109.778c0 .285-.231.516-.516.516h-400.807c-4.142 0-7.5 3.358-7.5 7.5s3.358 7.5 7.5 7.5h385.291v224.968c0 .285-.231.516-.516.516h-448.904c-.285 0-.516-.231-.516-.516v-224.968h32.581c4.142 0 7.5-3.358 7.5-7.5s-3.358-7.5-7.5-7.5h-48.097c-.285 0-.516-.231-.516-.516v-32.064c0-.285.231-.516.516-.516h480.968c.285 0 .516.231.516.516z"/><path d="m365.163 415.532h33.404c4.142 0 7.5-3.358 7.5-7.5s-3.358-7.5-7.5-7.5h-25.904v-24.638h23.441c4.142 0 7.5-3.358 7.5-7.5s-3.358-7.5-7.5-7.5h-23.441v-24.638h25.904c4.142 0 7.5-3.358 7.5-7.5s-3.358-7.5-7.5-7.5h-33.404c-4.142 0-7.5 3.358-7.5 7.5v79.276c0 4.142 3.358 7.5 7.5 7.5z"/><path d="m134.085 409.707c1.318 3.709 4.836 6.19 8.769 6.19h.064c3.958-.027 7.473-2.563 8.763-6.36l26.123-78.635c1.306-3.931-.822-8.176-4.753-9.482-3.932-1.308-8.176.823-9.482 4.753l-20.833 62.712-21.852-62.955c-1.358-3.913-5.633-5.982-9.545-4.626-3.913 1.358-5.984 5.632-4.626 9.545z"/><path d="m290.373 335.89h14.503v72.506c0 4.142 3.358 7.5 7.5 7.5s7.5-3.358 7.5-7.5v-72.506h14.681c4.142 0 7.5-3.358 7.5-7.5s-3.358-7.5-7.5-7.5h-44.184c-4.142 0-7.5 3.358-7.5 7.5s3.357 7.5 7.5 7.5z"/><path d="m232.188 415.897c26.193 0 47.503-21.31 47.503-47.503s-21.31-47.503-47.503-47.503-47.503 21.31-47.503 47.503 21.31 47.503 47.503 47.503zm0-80.007c17.922 0 32.503 14.581 32.503 32.503s-14.581 32.503-32.503 32.503-32.503-14.581-32.503-32.503 14.581-32.503 32.503-32.503z"/></g></g></svg>